<?xml version="1.0" encoding="utf-8"?>
<!-- Generator: Adobe Illustrator 16.1.0, SVG Export Plug-In . SVG Version: 6.00 Build 0)  -->
<!DOCTYPE svg PUBLIC "-//W3C//DTD SVG 1.1//EN" "http://www.w3.org/Graphics/SVG/1.1/DTD/svg11.dtd">
<svg version="1.1" id="Layer_1" xmlns="http://www.w3.org/2000/svg" xmlns:xlink="http://www.w3.org/1999/xlink" x="0px" y="0px"
	 width="38px" height="50px" viewBox="0 0 38 50" enable-background="new 0 0 38 50" xml:space="preserve">
<polygon fill="#231F20" points="37.127,25.118 34.562,22.054 31.914,18.992 29.514,15.846 27.109,12.701 24.877,9.473 22.807,6.328 
	20.902,3.265 19.166,0.368 17.429,3.348 15.522,6.411 13.372,9.473 11.137,12.701 8.736,15.763 6.253,18.909 3.605,22.054 
	0.873,25.118 3.357,27.93 5.756,30.831 8.075,33.725 10.392,36.87 12.627,39.934 14.862,43.163 17.014,46.557 19.084,50.032 
	20.984,46.887 23.057,43.741 25.291,40.514 27.523,37.368 29.844,34.139 32.161,30.995 34.645,28.014 "/>
</svg>
