<?xml version="1.0" encoding="utf-8"?>
<!-- Generator: Adobe Illustrator 16.1.0, SVG Export Plug-In . SVG Version: 6.00 Build 0)  -->
<!DOCTYPE svg PUBLIC "-//W3C//DTD SVG 1.1//EN" "http://www.w3.org/Graphics/SVG/1.1/DTD/svg11.dtd">
<svg version="1.1" id="Layer_1" xmlns="http://www.w3.org/2000/svg" xmlns:xlink="http://www.w3.org/1999/xlink" x="0px" y="0px"
	 width="54px" height="50px" viewBox="0 0 54 50" enable-background="new 0 0 54 50" xml:space="preserve">
<g>
	<path d="M30.503,30.808c0.25,2.185,0.504,4.488,1.455,6.502c1.021,2.154,3.19,3.525,5.248,4.576
		c3.09,1.574,6.889,1.147,9.852-0.346c2.13-1.072,4.783-3.564,5.355-5.979c0.864-3.619,0.826-7.232-1.457-10.416
		c-1.502-2.095-3.85-3.692-6.386-4.211c-3.542-0.723-5.743,0.879-9.169,1.786c-0.957,0.254-1.661,0.759-2.382-0.154
		c-0.728-0.919,1.114-2.119,1.757-2.735c0.854-0.818,1.582-1.784,2.119-2.836c1.078-2.101,1.385-4.521,0.967-6.836
		c-1.068-5.901-6.51-10.449-13.07-8.95c-1.748,0.398-2.84,0.653-4.237,1.793c-0.798,0.651-2.277,2.309-2.852,3.147
		c-1.791,2.615-2.237,6.103-1.288,9.088c0.449,1.417,1.189,2.715,2.183,3.822c0.379,0.424,3.699,2.668,2.982,3.665
		c-0.722,1.004-2.021-0.007-3.123-0.581c-1.919-1-4.312-2.115-6.255-1.718l-4.305,0.88l-3.62,2.446l-2.447,3.618l-0.879,4.308
		l0.879,4.401l2.447,3.619l3.62,2.351l4.305,0.979l4.403-0.979l3.62-2.351c1.904-2.815,3.569-5.309,3.327-8.893
		c0.058,0.852,1.328,2.293,1.595,3.27c0.325,1.191,0.394,2.441,0.353,3.675c-0.072,2.161-0.527,4.317-0.871,6.448l-2.444,5.679
		h9.685l-2.348-5.679C28.787,39.645,27.454,34.847,30.503,30.808z"/>
	<circle cx="12.127" cy="31.655" r="11.425"/>
	<circle cx="41.873" cy="31.655" r="11.425"/>
	<circle cx="26.945" cy="11.549" r="11.426"/>
</g>
</svg>
