<?xml version="1.0" encoding="utf-8"?>
<!-- Generator: Adobe Illustrator 16.1.0, SVG Export Plug-In . SVG Version: 6.00 Build 0)  -->
<!DOCTYPE svg PUBLIC "-//W3C//DTD SVG 1.1//EN" "http://www.w3.org/Graphics/SVG/1.1/DTD/svg11.dtd">
<svg version="1.1" id="Layer_1" xmlns="http://www.w3.org/2000/svg" xmlns:xlink="http://www.w3.org/1999/xlink" x="0px" y="0px"
	 width="40px" height="50px" viewBox="0 0 40 50" enable-background="new 0 0 40 50" xml:space="preserve">
<path d="M26.179,50.214H13.575l1.955-3.225c0.505-1.142,1.059-2.271,1.501-3.438c0.729-1.928,1.069-3.974,1.358-6.007
	c0.274-1.926,0.183-4.19-0.212-6.099c-0.32-1.545-0.654-3.012-2.338-4.081l-0.585-0.276L16,28.301l0.588,1.333l0.352,1.41
	l0.117,1.526l-0.195,1.686l-0.547,1.527l-0.825,1.41c0,0-1.088,1.129-1.096,1.137c-3.873,4.012-10.888,2.104-12.853-2.783
	c-0.862-2.145-0.813-4.139-0.241-6.333c0.295-1.131,0.722-2.223,1.229-3.274c0.735-1.526,1.607-3.026,2.565-4.424
	c2.198-3.207,4.69-6.217,7.2-9.183c1.799-2.125,3.563-4.278,5.196-6.533c1.309-1.805,2.319-3.427,3.022-5.538
	c0.104,0.553,0.965,2.036,1.198,2.533c0.582,1.249,1.297,2.431,2.072,3.567c1.557,2.279,3.365,4.368,5.047,6.551
	c2.666,3.459,5.369,6.963,7.543,10.76c0.365,0.637,0.637,1.337,0.943,2.003c0.36,0.777,0.855,1.581,1.102,2.4
	c0.371,1.235,0.656,2.735,0.695,4.028c0.017,0.511,0.018,1.227-0.119,1.72l-0.43,1.567c-1.476,2.869-3.971,5.194-7.392,5.156
	c-2.492-0.027-5.162-1.389-6.688-3.365c-1.217-1.578-1.891-4.17-1.396-6.141l0.354-1.41l0.523-1.266l0.729-1.28
	c-0.658,0.22-1.674,1.154-1.943,1.603c-0.424,0.705-0.672,1.498-0.855,2.299c-0.369,1.604-0.43,3.265-0.378,4.904
	c0.082,2.643,0.62,5.073,1.366,7.6c0.441,1.503,1.078,2.888,1.87,4.236C24.904,47.982,25.927,50.212,26.179,50.214z"/>
</svg>
