<?xml version="1.0" encoding="utf-8"?>
<!-- Generator: Adobe Illustrator 16.1.0, SVG Export Plug-In . SVG Version: 6.00 Build 0)  -->
<!DOCTYPE svg PUBLIC "-//W3C//DTD SVG 1.1//EN" "http://www.w3.org/Graphics/SVG/1.1/DTD/svg11.dtd">
<svg version="1.1" id="Layer_1" xmlns="http://www.w3.org/2000/svg" xmlns:xlink="http://www.w3.org/1999/xlink" x="0px" y="0px"
	 width="42px" height="50px" viewBox="0 0 42 50" enable-background="new 0 0 42 50" xml:space="preserve">
<path fill="#231F20" d="M20.4,11.765c-0.251-0.141-0.451-0.459-0.557-0.677c-0.198-0.407-0.316-0.841-0.393-1.286
	c-0.272-1.646-0.397-3.247-1.164-4.767c-0.729-1.443-1.879-2.596-3.276-3.4c-0.721-0.416-1.571-0.885-2.377-1.102
	C10.202-0.12,7.526,0.211,5.36,1.503C3.25,2.764,1.808,4.858,1.27,7.245c-0.562,2.49-0.147,5.049,0.355,7.51
	c0.355,1.745,1.25,3.844,2.177,5.383c0.001,0.001,3.096,5.133,3.096,5.133l3.667,5.217l3.667,5.295
	c1.473,2.402,3.075,4.746,4.272,7.301c1.087,2.322,1.584,4.711,2.082,7.205c-0.131-0.656,0.414-1.92,0.582-2.572
	c0.24-0.918,0.514-1.822,0.834-2.713c0.52-1.434,1.191-2.795,1.844-4.168l3.18-5.053c0,0,3.576-5.283,3.588-5.295
	c2.095-3.098,4.421-6.035,6.281-9.29c0.564-0.995,1.09-2.013,1.556-3.062c1.022-2.324,1.838-4.776,2.038-7.322
	c0.146-1.856-0.403-4.308-1.438-5.87c-0.804-1.217-1.767-2.397-2.938-3.278c-2.408-1.814-5.412-1.718-8.166-0.933
	c-1.18,0.334-2.445,1.039-3.336,1.868c-0.729,0.674-1.014,0.906-1.789,2.42c-1.043,2.028-0.838,3.966-1.438,5.892
	c-0.093,0.298-0.257,0.791-0.595,0.9C20.652,11.859,20.521,11.832,20.4,11.765z"/>
</svg>
